<?xml version="1.0" standalone="no"?><svg xmlns="http://www.w3.org/2000/svg" viewBox="0 0 1440 320"><path fill="#00abf0" fill-opacity="0.7" d="M0,224L40,213.3C80,203,160,181,240,186.7C320,192,400,224,480,213.3C560,203,640,149,720,138.7C800,128,880,160,960,170.7C1040,181,1120,171,1200,165.3C1280,160,1360,160,1400,160L1440,160L1440,320L1400,320C1360,320,1280,320,1200,320C1120,320,1040,320,960,320C880,320,800,320,720,320C640,320,560,320,480,320C400,320,320,320,240,320C160,320,80,320,40,320L0,320Z"></path></svg>